<svg width="14" height="12" viewBox="0 0 14 12" fill="none" xmlns="http://www.w3.org/2000/svg">
<path d="M13.6668 5.29341C13.6599 5.23217 13.6465 5.17183 13.6268 5.11341V5.05341C13.5948 4.98487 13.552 4.92186 13.5002 4.86675L9.50016 0.866748C9.44505 0.814892 9.38204 0.772136 9.3135 0.740081H9.24683C9.182 0.705417 9.11234 0.680696 9.04016 0.666748H2.3335C1.80306 0.666748 1.29436 0.877462 0.919283 1.25253C0.54421 1.62761 0.333496 2.13631 0.333496 2.66675V9.33341C0.333496 9.86385 0.54421 10.3726 0.919283 10.7476C1.29436 11.1227 1.80306 11.3334 2.3335 11.3334H11.6668C12.1973 11.3334 12.706 11.1227 13.081 10.7476C13.4561 10.3726 13.6668 9.86385 13.6668 9.33341V5.33341C13.6668 5.33341 13.6668 5.33341 13.6668 5.29341ZM9.66683 2.94008L11.3935 4.66675H10.3335C10.1567 4.66675 9.98711 4.59651 9.86209 4.47149C9.73707 4.34646 9.66683 4.17689 9.66683 4.00008V2.94008ZM12.3335 9.33341C12.3335 9.51023 12.2633 9.6798 12.1382 9.80482C12.0132 9.92984 11.8436 10.0001 11.6668 10.0001H2.3335C2.15668 10.0001 1.98712 9.92984 1.86209 9.80482C1.73707 9.6798 1.66683 9.51023 1.66683 9.33341V2.66675C1.66683 2.48994 1.73707 2.32037 1.86209 2.19534C1.98712 2.07032 2.15668 2.00008 2.3335 2.00008H8.3335V4.00008C8.3335 4.53051 8.54421 5.03922 8.91928 5.41429C9.29435 5.78937 9.80306 6.00008 10.3335 6.00008H12.3335V9.33341ZM3.66683 6.00008H6.3335C6.51031 6.00008 6.67988 5.92984 6.8049 5.80482C6.92992 5.67979 7.00016 5.51023 7.00016 5.33341C7.00016 5.1566 6.92992 4.98703 6.8049 4.86201C6.67988 4.73699 6.51031 4.66675 6.3335 4.66675H3.66683C3.49002 4.66675 3.32045 4.73699 3.19542 4.86201C3.0704 4.98703 3.00016 5.1566 3.00016 5.33341C3.00016 5.51023 3.0704 5.67979 3.19542 5.80482C3.32045 5.92984 3.49002 6.00008 3.66683 6.00008ZM3.66683 7.33341C3.49002 7.33341 3.32045 7.40365 3.19542 7.52868C3.0704 7.6537 3.00016 7.82327 3.00016 8.00008C3.00016 8.17689 3.0704 8.34646 3.19542 8.47149C3.32045 8.59651 3.49002 8.66675 3.66683 8.66675H10.3335C10.5103 8.66675 10.6799 8.59651 10.8049 8.47149C10.9299 8.34646 11.0002 8.17689 11.0002 8.00008C11.0002 7.82327 10.9299 7.6537 10.8049 7.52868C10.6799 7.40365 10.5103 7.33341 10.3335 7.33341H3.66683Z" fill="#E7EAEE"/>
</svg>
