<svg width="16" height="16" viewBox="0 0 16 16" fill="none" xmlns="http://www.w3.org/2000/svg">
<path d="M3.021 12.4166C3.72933 11.8888 4.50016 11.4721 5.3335 11.1666C6.16683 10.861 7.05572 10.7083 8.00016 10.7083C8.94461 10.7083 9.8335 10.861 10.6668 11.1666C11.5002 11.4721 12.271 11.8888 12.9793 12.4166C13.4932 11.8471 13.9029 11.1874 14.2085 10.4374C14.5141 9.68742 14.6668 8.87492 14.6668 7.99992C14.6668 6.1527 14.0177 4.57964 12.7193 3.28075C11.4204 1.98242 9.84738 1.33325 8.00016 1.33325C6.15294 1.33325 4.58016 1.98242 3.28183 3.28075C1.98294 4.57964 1.3335 6.1527 1.3335 7.99992C1.3335 8.87492 1.48627 9.68742 1.79183 10.4374C2.09739 11.1874 2.50711 11.8471 3.021 12.4166ZM8.00016 8.62492C7.23627 8.62492 6.59405 8.36436 6.0735 7.84325C5.55238 7.3227 5.29183 6.68047 5.29183 5.91658C5.29183 5.1527 5.55238 4.51047 6.0735 3.98992C6.59405 3.46881 7.23627 3.20825 8.00016 3.20825C8.76405 3.20825 9.40627 3.46881 9.92683 3.98992C10.4479 4.51047 10.7085 5.1527 10.7085 5.91658C10.7085 6.68047 10.4479 7.3227 9.92683 7.84325C9.40627 8.36436 8.76405 8.62492 8.00016 8.62492ZM8.00016 15.9166C6.90294 15.9166 5.87183 15.7083 4.90683 15.2916C3.94127 14.8749 3.10433 14.3124 2.396 13.6041C1.68766 12.8958 1.12516 12.0588 0.708496 11.0933C0.291829 10.1283 0.0834961 9.09714 0.0834961 7.99992C0.0834961 6.9027 0.291829 5.87131 0.708496 4.90575C1.12516 3.94075 1.68766 3.10409 2.396 2.39575C3.10433 1.68742 3.94127 1.12492 4.90683 0.708252C5.87183 0.291585 6.90294 0.083252 8.00016 0.083252C9.09738 0.083252 10.1288 0.291585 11.0943 0.708252C12.0593 1.12492 12.896 1.68742 13.6043 2.39575C14.3127 3.10409 14.8752 3.94075 15.2918 4.90575C15.7085 5.87131 15.9168 6.9027 15.9168 7.99992C15.9168 9.09714 15.7085 10.1283 15.2918 11.0933C14.8752 12.0588 14.3127 12.8958 13.6043 13.6041C12.896 14.3124 12.0593 14.8749 11.0943 15.2916C10.1288 15.7083 9.09738 15.9166 8.00016 15.9166Z" fill="white"/>
</svg>
