<svg width="14" height="10" viewBox="0 0 14 10" fill="none" xmlns="http://www.w3.org/2000/svg">
<path d="M3.60023 7.03333C2.75578 7.03333 2.03912 6.73622 1.45023 6.14199C0.861339 5.54733 0.566895 4.83333 0.566895 3.99999C0.566895 3.16666 0.861339 2.45266 1.45023 1.85799C2.03912 1.26377 2.75578 0.96666 3.60023 0.96666H5.63356C5.77801 0.96666 5.89756 1.01666 5.99223 1.11666C6.08645 1.21666 6.13356 1.33333 6.13356 1.46666C6.13356 1.6111 6.08645 1.73044 5.99223 1.82466C5.89756 1.91933 5.77801 1.96666 5.63356 1.96666H3.60023C3.03356 1.96666 2.55289 2.16666 2.15823 2.56666C1.76401 2.96666 1.56689 3.44444 1.56689 3.99999C1.56689 4.55555 1.76401 5.03333 2.15823 5.43333C2.55289 5.83333 3.03356 6.03333 3.60023 6.03333H5.63356C5.77801 6.03333 5.89756 6.08044 5.99223 6.17466C6.08645 6.26933 6.13356 6.38888 6.13356 6.53333C6.13356 6.66666 6.08645 6.78333 5.99223 6.88333C5.89756 6.98333 5.77801 7.03333 5.63356 7.03333H3.60023ZM4.93356 4.49999C4.78912 4.49999 4.66978 4.45266 4.57556 4.35799C4.48089 4.26377 4.43356 4.14444 4.43356 3.99999C4.43356 3.85555 4.48089 3.73599 4.57556 3.64133C4.66978 3.5471 4.78912 3.49999 4.93356 3.49999H8.93356C9.078 3.49999 9.19756 3.5471 9.29223 3.64133C9.38645 3.73599 9.43356 3.85555 9.43356 3.99999C9.43356 4.14444 9.38645 4.26377 9.29223 4.35799C9.19756 4.45266 9.078 4.49999 8.93356 4.49999H4.93356ZM13.2836 3.99999H12.2836C12.2836 3.44444 12.0864 2.96666 11.6922 2.56666C11.2976 2.16666 10.8224 1.96666 10.2669 1.96666H8.21689C8.08356 1.96666 7.96689 1.91933 7.86689 1.82466C7.76689 1.73044 7.71689 1.6111 7.71689 1.46666C7.71689 1.33333 7.76689 1.21666 7.86689 1.11666C7.96689 1.01666 8.08356 0.96666 8.21689 0.96666H10.2669C11.1002 0.96666 11.8113 1.26377 12.4002 1.85799C12.9891 2.45266 13.2836 3.16666 13.2836 3.99999ZM10.9336 9.16666C10.7891 9.16666 10.6698 9.11955 10.5756 9.02533C10.4809 8.93066 10.4336 8.8111 10.4336 8.66666V7.16666H8.93356C8.78912 7.16666 8.66978 7.11955 8.57556 7.02533C8.48089 6.93066 8.43356 6.8111 8.43356 6.66666C8.43356 6.52221 8.48089 6.40266 8.57556 6.30799C8.66978 6.21377 8.78912 6.16666 8.93356 6.16666H10.4336V4.66666C10.4336 4.52222 10.4809 4.40266 10.5756 4.30799C10.6698 4.21377 10.7891 4.16666 10.9336 4.16666C11.078 4.16666 11.1976 4.21377 11.2922 4.30799C11.3864 4.40266 11.4336 4.52222 11.4336 4.66666V6.16666H12.9336C13.078 6.16666 13.1976 6.21377 13.2922 6.30799C13.3864 6.40266 13.4336 6.52221 13.4336 6.66666C13.4336 6.8111 13.3864 6.93066 13.2922 7.02533C13.1976 7.11955 13.078 7.16666 12.9336 7.16666H11.4336V8.66666C11.4336 8.8111 11.3864 8.93066 11.2922 9.02533C11.1976 9.11955 11.078 9.16666 10.9336 9.16666Z" fill="#0055AA"/>
</svg>
