<svg width="16" height="16" viewBox="0 0 16 16" fill="none" xmlns="http://www.w3.org/2000/svg">
<path d="M4.6665 11.9584H8.83317C9.01373 11.9584 9.16317 11.8995 9.2815 11.7817C9.39928 11.6634 9.45817 11.514 9.45817 11.3334C9.45817 11.1529 9.39928 11.0034 9.2815 10.8851C9.16317 10.7673 9.01373 10.7084 8.83317 10.7084H4.6665C4.48595 10.7084 4.33678 10.7673 4.219 10.8851C4.10067 11.0034 4.0415 11.1529 4.0415 11.3334C4.0415 11.514 4.10067 11.6634 4.219 11.7817C4.33678 11.8995 4.48595 11.9584 4.6665 11.9584ZM4.6665 8.62508H11.3332C11.5137 8.62508 11.6632 8.56591 11.7815 8.44758C11.8993 8.3298 11.9582 8.18064 11.9582 8.00008C11.9582 7.81953 11.8993 7.67008 11.7815 7.55175C11.6632 7.43397 11.5137 7.37508 11.3332 7.37508H4.6665C4.48595 7.37508 4.33678 7.43397 4.219 7.55175C4.10067 7.67008 4.0415 7.81953 4.0415 8.00008C4.0415 8.18064 4.10067 8.3298 4.219 8.44758C4.33678 8.56591 4.48595 8.62508 4.6665 8.62508ZM4.6665 5.29175H11.3332C11.5137 5.29175 11.6632 5.23258 11.7815 5.11425C11.8993 4.99647 11.9582 4.8473 11.9582 4.66675C11.9582 4.48619 11.8993 4.33703 11.7815 4.21925C11.6632 4.10091 11.5137 4.04175 11.3332 4.04175H4.6665C4.48595 4.04175 4.33678 4.10091 4.219 4.21925C4.10067 4.33703 4.0415 4.48619 4.0415 4.66675C4.0415 4.8473 4.10067 4.99647 4.219 5.11425C4.33678 5.23258 4.48595 5.29175 4.6665 5.29175ZM2.4165 15.0834C1.99984 15.0834 1.64567 14.9376 1.354 14.6459C1.06234 14.3542 0.916504 14.0001 0.916504 13.5834V2.41675C0.916504 2.00008 1.06234 1.64591 1.354 1.35425C1.64567 1.06258 1.99984 0.916748 2.4165 0.916748H13.5832C13.9998 0.916748 14.354 1.06258 14.6457 1.35425C14.9373 1.64591 15.0832 2.00008 15.0832 2.41675V13.5834C15.0832 14.0001 14.9373 14.3542 14.6457 14.6459C14.354 14.9376 13.9998 15.0834 13.5832 15.0834H2.4165ZM2.4165 13.8334H13.5832C13.6387 13.8334 13.6943 13.8056 13.7498 13.7501C13.8054 13.6945 13.8332 13.639 13.8332 13.5834V2.41675C13.8332 2.36119 13.8054 2.30564 13.7498 2.25008C13.6943 2.19453 13.6387 2.16675 13.5832 2.16675H2.4165C2.36095 2.16675 2.30539 2.19453 2.24984 2.25008C2.19428 2.30564 2.1665 2.36119 2.1665 2.41675V13.5834C2.1665 13.639 2.19428 13.6945 2.24984 13.7501C2.30539 13.8056 2.36095 13.8334 2.4165 13.8334Z" fill="white"/>
</svg>
