<svg width="11" height="12" viewBox="0 0 11 12" fill="none" xmlns="http://www.w3.org/2000/svg">
<path d="M1.66699 0.858529V0.865338C1.54292 0.906262 1.44674 0.979796 1.38011 1.04643C1.28116 1.14537 1.16699 1.30949 1.16699 1.53331C1.16699 1.33107 1.23205 1.17537 1.37055 1.03687C1.45964 0.947773 1.55585 0.889072 1.66699 0.858529ZM1.31924 10.6741L1.31922 10.6741L1.31392 10.6764C1.2786 10.6921 1.26267 10.691 1.25956 10.6908C1.25852 10.6907 1.25597 10.6905 1.25175 10.6895L1.86451 10.426L5.00033 9.07758L8.13615 10.426L8.74879 10.6894C8.74443 10.6906 8.74186 10.6907 8.74088 10.6908C8.738 10.691 8.72214 10.6921 8.68673 10.6764L8.68674 10.6764L8.68141 10.6741L5.19808 9.17408L5.00033 9.08892L4.80257 9.17408L1.31924 10.6741Z" fill="#1C1B1F" stroke="#0055AA"/>
</svg>
