<svg width="12" height="18" viewBox="0 0 12 18" fill="none" xmlns="http://www.w3.org/2000/svg">
<path d="M9.33318 0.666748H2.66651C2.00347 0.666748 1.36758 0.93014 0.898744 1.39898C0.429903 1.86782 0.16651 2.50371 0.16651 3.16675V16.5001C0.165928 16.6469 0.204156 16.7913 0.277325 16.9186C0.350495 17.0459 0.456007 17.1517 0.583177 17.2251C0.70986 17.2982 0.853563 17.3367 0.999844 17.3367C1.14612 17.3367 1.28983 17.2982 1.41651 17.2251L5.99984 14.5751L10.5832 17.2251C10.7102 17.2971 10.8539 17.3344 10.9998 17.3334C11.1458 17.3344 11.2895 17.2971 11.4165 17.2251C11.5437 17.1517 11.6492 17.0459 11.7224 16.9186C11.7955 16.7913 11.8338 16.6469 11.8332 16.5001V3.16675C11.8332 2.50371 11.5698 1.86782 11.1009 1.39898C10.6321 0.93014 9.99622 0.666748 9.33318 0.666748ZM10.1665 15.0584L6.41651 12.8917C6.28983 12.8186 6.14612 12.7801 5.99984 12.7801C5.85356 12.7801 5.70986 12.8186 5.58318 12.8917L1.83318 15.0584V3.16675C1.83318 2.94573 1.92097 2.73377 2.07726 2.57749C2.23354 2.42121 2.4455 2.33341 2.66651 2.33341H9.33318C9.55419 2.33341 9.76615 2.42121 9.92243 2.57749C10.0787 2.73377 10.1665 2.94573 10.1665 3.16675V15.0584Z" fill="#4B5768"/>
</svg>
