<svg width="14" height="18" viewBox="0 0 14 18" fill="none" xmlns="http://www.w3.org/2000/svg">
<path d="M12.0002 0.666748H3.66683C2.78277 0.666748 1.93493 1.01794 1.30981 1.64306C0.684685 2.26818 0.333496 3.11603 0.333496 4.00008V14.0001C0.333496 14.8841 0.684685 15.732 1.30981 16.3571C1.93493 16.9822 2.78277 17.3334 3.66683 17.3334H12.0002C12.4422 17.3334 12.8661 17.1578 13.1787 16.8453C13.4912 16.5327 13.6668 16.1088 13.6668 15.6667V2.33341C13.6668 1.89139 13.4912 1.46746 13.1787 1.1549C12.8661 0.842343 12.4422 0.666748 12.0002 0.666748ZM2.00016 4.00008C2.00016 3.55805 2.17576 3.13413 2.48832 2.82157C2.80088 2.50901 3.2248 2.33341 3.66683 2.33341H12.0002V10.6667H3.66683C3.07936 10.6692 2.50349 10.8305 2.00016 11.1334V4.00008ZM3.66683 15.6667C3.2248 15.6667 2.80088 15.4912 2.48832 15.1786C2.17576 14.866 2.00016 14.4421 2.00016 14.0001C2.00016 13.5581 2.17576 13.1341 2.48832 12.8216C2.80088 12.509 3.2248 12.3334 3.66683 12.3334H12.0002V15.6667H3.66683ZM5.3335 5.66675H8.66683C8.88784 5.66675 9.0998 5.57895 9.25608 5.42267C9.41236 5.26639 9.50016 5.05443 9.50016 4.83341C9.50016 4.6124 9.41236 4.40044 9.25608 4.24416C9.0998 4.08788 8.88784 4.00008 8.66683 4.00008H5.3335C5.11248 4.00008 4.90052 4.08788 4.74424 4.24416C4.58796 4.40044 4.50016 4.6124 4.50016 4.83341C4.50016 5.05443 4.58796 5.26639 4.74424 5.42267C4.90052 5.57895 5.11248 5.66675 5.3335 5.66675Z" fill="#4B5768"/>
</svg>
