<svg width="20" height="20" viewBox="0 0 20 20" fill="none" xmlns="http://www.w3.org/2000/svg">
<mask id="mask0_544_281" style="mask-type:alpha" maskUnits="userSpaceOnUse" x="0" y="0" width="20" height="20">
<rect width="20" height="20" fill="#D9D9D9"/>
</mask>
<g mask="url(#mask0_544_281)">
<path d="M7.5 14.7916H12.5C12.6806 14.7916 12.83 14.7327 12.9483 14.6149C13.0661 14.4966 13.125 14.3471 13.125 14.1666C13.125 13.986 13.0661 13.8366 12.9483 13.7183C12.83 13.6005 12.6806 13.5416 12.5 13.5416H7.5C7.31944 13.5416 7.17028 13.6005 7.0525 13.7183C6.93417 13.8366 6.875 13.986 6.875 14.1666C6.875 14.3471 6.93417 14.4966 7.0525 14.6149C7.17028 14.7327 7.31944 14.7916 7.5 14.7916ZM7.5 11.4583H12.5C12.6806 11.4583 12.83 11.3991 12.9483 11.2808C13.0661 11.163 13.125 11.0138 13.125 10.8333C13.125 10.6527 13.0661 10.5033 12.9483 10.3849C12.83 10.2671 12.6806 10.2083 12.5 10.2083H7.5C7.31944 10.2083 7.17028 10.2671 7.0525 10.3849C6.93417 10.5033 6.875 10.6527 6.875 10.8333C6.875 11.0138 6.93417 11.163 7.0525 11.2808C7.17028 11.3991 7.31944 11.4583 7.5 11.4583ZM5.25 17.9166C4.83333 17.9166 4.47917 17.7708 4.1875 17.4791C3.89583 17.1874 3.75 16.8333 3.75 16.4166V3.58325C3.75 3.16659 3.89583 2.81242 4.1875 2.52075C4.47917 2.22909 4.83333 2.08325 5.25 2.08325H11.25C11.4583 2.08325 11.6528 2.12131 11.8333 2.19742C12.0139 2.27409 12.1736 2.38186 12.3125 2.52075L15.8125 6.02075C15.9514 6.15964 16.0592 6.31936 16.1358 6.49992C16.2119 6.68047 16.25 6.87492 16.25 7.08325V16.4166C16.25 16.8333 16.1042 17.1874 15.8125 17.4791C15.5208 17.7708 15.1667 17.9166 14.75 17.9166H5.25ZM11.25 6.33325V3.33325H5.25C5.19444 3.33325 5.13889 3.36103 5.08333 3.41659C5.02778 3.47214 5 3.5277 5 3.58325V16.4166C5 16.4721 5.02778 16.5277 5.08333 16.5833C5.13889 16.6388 5.19444 16.6666 5.25 16.6666H14.75C14.8056 16.6666 14.8611 16.6388 14.9167 16.5833C14.9722 16.5277 15 16.4721 15 16.4166V7.08325H12C11.7917 7.08325 11.6144 7.0102 11.4683 6.86409C11.3228 6.71853 11.25 6.54158 11.25 6.33325Z" fill="white"/>
</g>
</svg>
