<svg width="12" height="7" viewBox="0 0 12 7" fill="none" xmlns="http://www.w3.org/2000/svg">
<path d="M5.9999 6.65001C5.88324 6.65001 5.7709 6.63334 5.6629 6.60001C5.55424 6.56667 5.45824 6.50001 5.3749 6.40001L0.849902 1.90001C0.716569 1.75001 0.649902 1.57501 0.649902 1.37501C0.649902 1.17501 0.724902 1.00001 0.874902 0.850006C1.0249 0.716673 1.1999 0.650005 1.3999 0.650005C1.5999 0.650005 1.7749 0.716673 1.9249 0.850006L5.9999 4.92501L10.0999 0.850006C10.2332 0.700006 10.3999 0.629006 10.5999 0.637006C10.7999 0.645673 10.9749 0.716673 11.1249 0.850006C11.2749 1.00001 11.3499 1.17901 11.3499 1.38701C11.3499 1.59567 11.2749 1.76667 11.1249 1.90001L6.6249 6.40001C6.54157 6.50001 6.4459 6.56667 6.3379 6.60001C6.22924 6.63334 6.11657 6.65001 5.9999 6.65001Z" fill="#0071E3"/>
</svg>
