<svg width="24" height="24" viewBox="0 0 24 24" fill="none" xmlns="http://www.w3.org/2000/svg">
<mask id="mask0_248_184" style="mask-type:alpha" maskUnits="userSpaceOnUse" x="0" y="0" width="24" height="24">
<rect y="24" width="24" height="24" transform="rotate(-90 0 24)" fill="#D9D9D9"/>
</mask>
<g mask="url(#mask0_248_184)">
<path d="M14.6498 12C14.6498 12.1167 14.6332 12.229 14.5998 12.337C14.5665 12.4457 14.4998 12.5417 14.3998 12.625L9.89984 17.15C9.74984 17.2833 9.57484 17.35 9.37484 17.35C9.17484 17.35 8.99984 17.275 8.84984 17.125C8.71651 16.975 8.64984 16.8 8.64984 16.6C8.64984 16.4 8.7165 16.225 8.84984 16.075L12.9248 12L8.84984 7.90001C8.69984 7.76667 8.62884 7.60001 8.63684 7.40001C8.6455 7.20001 8.7165 7.02501 8.84984 6.87501C8.99984 6.72501 9.17884 6.65001 9.38684 6.65001C9.5955 6.65001 9.7665 6.72501 9.89984 6.87501L14.3998 11.375C14.4998 11.4583 14.5665 11.554 14.5998 11.662C14.6332 11.7707 14.6498 11.8833 14.6498 12Z" fill="white"/>
</g>
</svg>
