<svg width="20" height="20" viewBox="0 0 20 20" fill="none" xmlns="http://www.w3.org/2000/svg">
<mask id="mask0_547_19" style="mask-type:alpha" maskUnits="userSpaceOnUse" x="0" y="0" width="20" height="20">
<rect width="20" height="20" fill="#D9D9D9"/>
</mask>
<g mask="url(#mask0_547_19)">
<path d="M3.75016 11.0416C3.4585 11.0416 3.21183 10.9408 3.01016 10.7391C2.80905 10.538 2.7085 10.2916 2.7085 9.99992C2.7085 9.70825 2.80905 9.46186 3.01016 9.26075C3.21183 9.05908 3.4585 8.95825 3.75016 8.95825C4.04183 8.95825 4.2885 9.05908 4.49016 9.26075C4.69127 9.46186 4.79183 9.70825 4.79183 9.99992C4.79183 10.2916 4.69127 10.538 4.49016 10.7391C4.2885 10.9408 4.04183 11.0416 3.75016 11.0416ZM3.75016 6.04159C3.4585 6.04159 3.21183 5.94075 3.01016 5.73909C2.80905 5.53797 2.7085 5.29159 2.7085 4.99992C2.7085 4.70825 2.80905 4.46159 3.01016 4.25992C3.21183 4.05881 3.4585 3.95825 3.75016 3.95825C4.04183 3.95825 4.2885 4.05881 4.49016 4.25992C4.69127 4.46159 4.79183 4.70825 4.79183 4.99992C4.79183 5.29159 4.69127 5.53797 4.49016 5.73909C4.2885 5.94075 4.04183 6.04159 3.75016 6.04159ZM3.75016 16.0416C3.4585 16.0416 3.21183 15.9408 3.01016 15.7391C2.80905 15.538 2.7085 15.2916 2.7085 14.9999C2.7085 14.7083 2.80905 14.4619 3.01016 14.2608C3.21183 14.0591 3.4585 13.9583 3.75016 13.9583C4.04183 13.9583 4.2885 14.0591 4.49016 14.2608C4.69127 14.4619 4.79183 14.7083 4.79183 14.9999C4.79183 15.2916 4.69127 15.538 4.49016 15.7391C4.2885 15.9408 4.04183 16.0416 3.75016 16.0416ZM7.50016 15.6249C7.31961 15.6249 7.17044 15.566 7.05266 15.4483C6.93433 15.3299 6.87516 15.1805 6.87516 14.9999C6.87516 14.8194 6.93433 14.6699 7.05266 14.5516C7.17044 14.4338 7.31961 14.3749 7.50016 14.3749H16.6668C16.8474 14.3749 16.9968 14.4338 17.1152 14.5516C17.2329 14.6699 17.2918 14.8194 17.2918 14.9999C17.2918 15.1805 17.2329 15.3299 17.1152 15.4483C16.9968 15.566 16.8474 15.6249 16.6668 15.6249H7.50016ZM7.50016 10.6249C7.31961 10.6249 7.17044 10.5658 7.05266 10.4474C6.93433 10.3296 6.87516 10.1805 6.87516 9.99992C6.87516 9.81936 6.93433 9.66992 7.05266 9.55159C7.17044 9.43381 7.31961 9.37492 7.50016 9.37492H16.6668C16.8474 9.37492 16.9968 9.43381 17.1152 9.55159C17.2329 9.66992 17.2918 9.81936 17.2918 9.99992C17.2918 10.1805 17.2329 10.3296 17.1152 10.4474C16.9968 10.5658 16.8474 10.6249 16.6668 10.6249H7.50016ZM7.50016 5.62492C7.31961 5.62492 7.17044 5.56575 7.05266 5.44742C6.93433 5.32964 6.87516 5.18047 6.87516 4.99992C6.87516 4.81936 6.93433 4.6702 7.05266 4.55242C7.17044 4.43409 7.31961 4.37492 7.50016 4.37492H16.6668C16.8474 4.37492 16.9968 4.43409 17.1152 4.55242C17.2329 4.6702 17.2918 4.81936 17.2918 4.99992C17.2918 5.18047 17.2329 5.32964 17.1152 5.44742C16.9968 5.56575 16.8474 5.62492 16.6668 5.62492H7.50016Z" fill="white"/>
</g>
</svg>
