<svg width="14" height="18" viewBox="0 0 14 18" fill="none" xmlns="http://www.w3.org/2000/svg">
<path d="M7.8335 10.6667H4.50016C4.27915 10.6667 4.06719 10.7545 3.91091 10.9108C3.75463 11.0671 3.66683 11.2791 3.66683 11.5001C3.66683 11.7211 3.75463 11.9331 3.91091 12.0893C4.06719 12.2456 4.27915 12.3334 4.50016 12.3334H7.8335C8.05451 12.3334 8.26647 12.2456 8.42275 12.0893C8.57903 11.9331 8.66683 11.7211 8.66683 11.5001C8.66683 11.2791 8.57903 11.0671 8.42275 10.9108C8.26647 10.7545 8.05451 10.6667 7.8335 10.6667ZM11.1668 2.33341H10.1835C10.0116 1.84712 9.69344 1.42591 9.27272 1.12753C8.852 0.829147 8.34928 0.668198 7.8335 0.666748H6.16683C5.65104 0.668198 5.14833 0.829147 4.72761 1.12753C4.30689 1.42591 3.98876 1.84712 3.81683 2.33341H2.8335C2.17045 2.33341 1.53457 2.59681 1.06573 3.06565C0.596888 3.53449 0.333496 4.17037 0.333496 4.83341V14.8334C0.333496 15.4965 0.596888 16.1323 1.06573 16.6012C1.53457 17.07 2.17045 17.3334 2.8335 17.3334H11.1668C11.8299 17.3334 12.4658 17.07 12.9346 16.6012C13.4034 16.1323 13.6668 15.4965 13.6668 14.8334V4.83341C13.6668 4.17037 13.4034 3.53449 12.9346 3.06565C12.4658 2.59681 11.8299 2.33341 11.1668 2.33341ZM5.3335 3.16675C5.3335 2.94573 5.42129 2.73377 5.57757 2.57749C5.73385 2.42121 5.94582 2.33341 6.16683 2.33341H7.8335C8.05451 2.33341 8.26647 2.42121 8.42275 2.57749C8.57903 2.73377 8.66683 2.94573 8.66683 3.16675V4.00008H5.3335V3.16675ZM12.0002 14.8334C12.0002 15.0544 11.9124 15.2664 11.7561 15.4227C11.5998 15.579 11.3878 15.6667 11.1668 15.6667H2.8335C2.61248 15.6667 2.40052 15.579 2.24424 15.4227C2.08796 15.2664 2.00016 15.0544 2.00016 14.8334V4.83341C2.00016 4.6124 2.08796 4.40044 2.24424 4.24416C2.40052 4.08788 2.61248 4.00008 2.8335 4.00008H3.66683V4.83341C3.66683 5.05443 3.75463 5.26639 3.91091 5.42267C4.06719 5.57895 4.27915 5.66675 4.50016 5.66675H9.50016C9.72118 5.66675 9.93314 5.57895 10.0894 5.42267C10.2457 5.26639 10.3335 5.05443 10.3335 4.83341V4.00008H11.1668C11.3878 4.00008 11.5998 4.08788 11.7561 4.24416C11.9124 4.40044 12.0002 4.6124 12.0002 4.83341V14.8334ZM9.50016 7.33341H4.50016C4.27915 7.33341 4.06719 7.42121 3.91091 7.57749C3.75463 7.73377 3.66683 7.94573 3.66683 8.16675C3.66683 8.38776 3.75463 8.59972 3.91091 8.756C4.06719 8.91228 4.27915 9.00008 4.50016 9.00008H9.50016C9.72118 9.00008 9.93314 8.91228 10.0894 8.756C10.2457 8.59972 10.3335 8.38776 10.3335 8.16675C10.3335 7.94573 10.2457 7.73377 10.0894 7.57749C9.93314 7.42121 9.72118 7.33341 9.50016 7.33341Z" fill="#4B5768"/>
</svg>
