<svg width="20" height="20" viewBox="0 0 20 20" fill="none" xmlns="http://www.w3.org/2000/svg">
<mask id="mask0_544_270" style="mask-type:alpha" maskUnits="userSpaceOnUse" x="0" y="0" width="20" height="20">
<rect width="20" height="20" fill="#D9D9D9"/>
</mask>
<g mask="url(#mask0_544_270)">
<path d="M11.625 7.37508C11.625 7.29175 11.6561 7.20147 11.7183 7.10425C11.7811 7.00703 11.8542 6.93758 11.9375 6.89591C12.3542 6.72925 12.7814 6.60425 13.2192 6.52091C13.6564 6.43758 14.1111 6.39591 14.5833 6.39591C14.8611 6.39591 15.125 6.41341 15.375 6.44841C15.625 6.48286 15.8819 6.52786 16.1458 6.58341C16.2431 6.5973 16.3264 6.64591 16.3958 6.72925C16.4653 6.81258 16.5 6.9098 16.5 7.02091C16.5 7.21536 16.4408 7.35425 16.3225 7.43758C16.2047 7.52091 16.0556 7.54175 15.875 7.50008C15.6667 7.45841 15.455 7.43064 15.24 7.41675C15.0244 7.40286 14.8056 7.39591 14.5833 7.39591C14.1806 7.39591 13.7847 7.43397 13.3958 7.51008C13.0069 7.58675 12.6389 7.68758 12.2917 7.81258C12.0972 7.89591 11.9375 7.89591 11.8125 7.81258C11.6875 7.72925 11.625 7.58342 11.625 7.37508ZM11.625 11.9376C11.625 11.8404 11.6561 11.7431 11.7183 11.6459C11.7811 11.5487 11.8542 11.4792 11.9375 11.4376C12.3403 11.2709 12.7675 11.1459 13.2192 11.0626C13.6703 10.9792 14.125 10.9376 14.5833 10.9376C14.8611 10.9376 15.125 10.9551 15.375 10.9901C15.625 11.0245 15.8819 11.0695 16.1458 11.1251C16.2431 11.1529 16.3264 11.2084 16.3958 11.2917C16.4653 11.3751 16.5 11.4723 16.5 11.5834C16.5 11.764 16.4408 11.8992 16.3225 11.9892C16.2047 12.0798 16.0556 12.1042 15.875 12.0626C15.6667 12.0209 15.455 11.9895 15.24 11.9684C15.0244 11.9479 14.8056 11.9376 14.5833 11.9376C14.1806 11.9376 13.7883 11.9756 13.4067 12.0517C13.0244 12.1284 12.6597 12.2362 12.3125 12.3751C12.1042 12.4584 11.9375 12.4548 11.8125 12.3642C11.6875 12.2742 11.625 12.132 11.625 11.9376ZM11.625 9.66675C11.625 9.56953 11.6561 9.4723 11.7183 9.37508C11.7811 9.27786 11.8542 9.20841 11.9375 9.16675C12.3542 9.00008 12.7814 8.87508 13.2192 8.79175C13.6564 8.70842 14.1111 8.66675 14.5833 8.66675C14.8611 8.66675 15.125 8.68397 15.375 8.71841C15.625 8.75341 15.8819 8.79869 16.1458 8.85425C16.2431 8.86814 16.3264 8.92008 16.3958 9.01008C16.4653 9.10064 16.5 9.20147 16.5 9.31258C16.5 9.49314 16.4408 9.62841 16.3225 9.71841C16.2047 9.80897 16.0556 9.82647 15.875 9.77092C15.6667 9.72925 15.455 9.70147 15.24 9.68758C15.0244 9.67369 14.8056 9.66675 14.5833 9.66675C14.1806 9.66675 13.7883 9.70508 13.4067 9.78175C13.0244 9.85786 12.6597 9.96536 12.3125 10.1042C12.1042 10.1876 11.9375 10.184 11.8125 10.0934C11.6875 10.0034 11.625 9.86119 11.625 9.66675ZM10.625 14.3126C11.2639 13.9792 11.9097 13.7362 12.5625 13.5834C13.2153 13.4306 13.8889 13.3542 14.5833 13.3542C15.0833 13.3542 15.5522 13.389 15.99 13.4584C16.4272 13.5279 16.8472 13.632 17.25 13.7709C17.3056 13.7987 17.3611 13.7951 17.4167 13.7601C17.4722 13.7256 17.5 13.6667 17.5 13.5834V5.70841C17.5 5.66675 17.4861 5.62508 17.4583 5.58341C17.4306 5.54175 17.3889 5.50703 17.3333 5.47925C16.875 5.31258 16.4272 5.18758 15.99 5.10425C15.5522 5.02091 15.0833 4.97925 14.5833 4.97925C13.8889 4.97925 13.2014 5.07647 12.5208 5.27091C11.8403 5.46536 11.2083 5.75008 10.625 6.12508V14.3126ZM10 15.8126C9.83333 15.8126 9.68056 15.7917 9.54167 15.7501C9.40278 15.7084 9.27083 15.6529 9.14583 15.5834C8.57639 15.264 7.97556 15.0209 7.34333 14.8542C6.71167 14.6876 6.06944 14.6042 5.41667 14.6042C4.90278 14.6042 4.40278 14.6598 3.91667 14.7709C3.43056 14.882 2.95833 15.0487 2.5 15.2709C2.20833 15.4098 1.92722 15.389 1.65667 15.2084C1.38556 15.0279 1.25 14.7709 1.25 14.4376V5.39591C1.25 5.21536 1.29528 5.04508 1.38583 4.88508C1.47583 4.72564 1.61111 4.61119 1.79167 4.54175C2.34722 4.26397 2.93417 4.05897 3.5525 3.92675C4.17028 3.79508 4.79167 3.72925 5.41667 3.72925C6.22222 3.72925 7.01389 3.84036 7.79167 4.06258C8.56944 4.2848 9.30556 4.61119 10 5.04175C10.6944 4.61119 11.4306 4.2848 12.2083 4.06258C12.9861 3.84036 13.7778 3.72925 14.5833 3.72925C15.2083 3.72925 15.83 3.79508 16.4483 3.92675C17.0661 4.05897 17.6528 4.26397 18.2083 4.54175C18.3889 4.61119 18.5242 4.72564 18.6142 4.88508C18.7047 5.04508 18.75 5.21536 18.75 5.39591V14.4376C18.75 14.7709 18.6111 15.0245 18.3333 15.1984C18.0556 15.3717 17.7639 15.389 17.4583 15.2501C17 15.0417 16.5314 14.882 16.0525 14.7709C15.5731 14.6598 15.0833 14.6042 14.5833 14.6042C13.9306 14.6042 13.2883 14.6876 12.6567 14.8542C12.0244 15.0209 11.4236 15.264 10.8542 15.5834C10.7292 15.6529 10.5972 15.7084 10.4583 15.7501C10.3194 15.7917 10.1667 15.8126 10 15.8126Z" fill="white"/>
</g>
</svg>
