<svg width="14" height="18" viewBox="0 0 14 18" fill="none" xmlns="http://www.w3.org/2000/svg">
<path d="M4.50016 9.00008C4.27915 9.00008 4.06719 9.08788 3.91091 9.24416C3.75463 9.40044 3.66683 9.6124 3.66683 9.83341C3.66683 10.0544 3.75463 10.2664 3.91091 10.4227C4.06719 10.579 4.27915 10.6667 4.50016 10.6667H9.50016C9.72118 10.6667 9.93314 10.579 10.0894 10.4227C10.2457 10.2664 10.3335 10.0544 10.3335 9.83341C10.3335 9.6124 10.2457 9.40044 10.0894 9.24416C9.93314 9.08788 9.72118 9.00008 9.50016 9.00008H4.50016ZM13.6668 6.45008C13.6581 6.37353 13.6414 6.29811 13.6168 6.22508V6.15008C13.5768 6.0644 13.5233 5.98564 13.4585 5.91675L8.4585 0.916748C8.38961 0.851928 8.31085 0.798482 8.22516 0.758415C8.20029 0.754881 8.17504 0.754881 8.15016 0.758415C8.06551 0.709866 7.97202 0.678702 7.87516 0.666748H2.8335C2.17045 0.666748 1.53457 0.93014 1.06573 1.39898C0.596888 1.86782 0.333496 2.50371 0.333496 3.16675V14.8334C0.333496 15.4965 0.596888 16.1323 1.06573 16.6012C1.53457 17.07 2.17045 17.3334 2.8335 17.3334H11.1668C11.8299 17.3334 12.4658 17.07 12.9346 16.6012C13.4034 16.1323 13.6668 15.4965 13.6668 14.8334V6.50008C13.6668 6.50008 13.6668 6.50008 13.6668 6.45008ZM8.66683 3.50841L10.8252 5.66675H9.50016C9.27915 5.66675 9.06719 5.57895 8.91091 5.42267C8.75463 5.26639 8.66683 5.05443 8.66683 4.83341V3.50841ZM12.0002 14.8334C12.0002 15.0544 11.9124 15.2664 11.7561 15.4227C11.5998 15.579 11.3878 15.6667 11.1668 15.6667H2.8335C2.61248 15.6667 2.40052 15.579 2.24424 15.4227C2.08796 15.2664 2.00016 15.0544 2.00016 14.8334V3.16675C2.00016 2.94573 2.08796 2.73377 2.24424 2.57749C2.40052 2.42121 2.61248 2.33341 2.8335 2.33341H7.00016V4.83341C7.00016 5.49646 7.26355 6.13234 7.7324 6.60118C8.20124 7.07002 8.83712 7.33341 9.50016 7.33341H12.0002V14.8334ZM9.50016 12.3334H4.50016C4.27915 12.3334 4.06719 12.4212 3.91091 12.5775C3.75463 12.7338 3.66683 12.9457 3.66683 13.1667C3.66683 13.3878 3.75463 13.5997 3.91091 13.756C4.06719 13.9123 4.27915 14.0001 4.50016 14.0001H9.50016C9.72118 14.0001 9.93314 13.9123 10.0894 13.756C10.2457 13.5997 10.3335 13.3878 10.3335 13.1667C10.3335 12.9457 10.2457 12.7338 10.0894 12.5775C9.93314 12.4212 9.72118 12.3334 9.50016 12.3334Z" fill="#4B5768"/>
</svg>
