<svg width="12" height="14" viewBox="0 0 12 14" fill="none" xmlns="http://www.w3.org/2000/svg">
<path d="M9.99984 0.333252H3.33317C2.62593 0.333252 1.94765 0.614204 1.44755 1.1143C0.947455 1.6144 0.666504 2.29267 0.666504 2.99992V10.9999C0.666504 11.7072 0.947455 12.3854 1.44755 12.8855C1.94765 13.3856 2.62593 13.6666 3.33317 13.6666H9.99984C10.3535 13.6666 10.6926 13.5261 10.9426 13.2761C11.1927 13.026 11.3332 12.6869 11.3332 12.3333V1.66659C11.3332 1.31296 11.1927 0.973825 10.9426 0.723776C10.6926 0.473728 10.3535 0.333252 9.99984 0.333252ZM1.99984 2.99992C1.99984 2.6463 2.14031 2.30716 2.39036 2.05711C2.64041 1.80706 2.97955 1.66659 3.33317 1.66659H9.99984V8.33325H3.33317C2.8632 8.33522 2.4025 8.46422 1.99984 8.70658V2.99992ZM3.33317 12.3333C2.97955 12.3333 2.64041 12.1928 2.39036 11.9427C2.14031 11.6927 1.99984 11.3535 1.99984 10.9999C1.99984 10.6463 2.14031 10.3072 2.39036 10.0571C2.64041 9.80706 2.97955 9.66658 3.33317 9.66658H9.99984V12.3333H3.33317ZM4.6665 4.33325H7.33317C7.50998 4.33325 7.67955 4.26301 7.80457 4.13799C7.9296 4.01297 7.99984 3.8434 7.99984 3.66658C7.99984 3.48977 7.9296 3.3202 7.80457 3.19518C7.67955 3.07016 7.50998 2.99992 7.33317 2.99992H4.6665C4.48969 2.99992 4.32012 3.07016 4.1951 3.19518C4.07008 3.3202 3.99984 3.48977 3.99984 3.66658C3.99984 3.8434 4.07008 4.01297 4.1951 4.13799C4.32012 4.26301 4.48969 4.33325 4.6665 4.33325Z" fill="#E7EAEE"/>
</svg>
