<svg width="16" height="16" viewBox="0 0 16 16" fill="none" xmlns="http://www.w3.org/2000/svg">
<path d="M9.25003 15.9166H6.7292C6.54864 15.9166 6.38892 15.8541 6.25003 15.7291C6.11114 15.6041 6.02781 15.4444 6.00003 15.2499L5.75003 13.3749C5.52781 13.3055 5.30225 13.2013 5.07337 13.0624C4.84392 12.9235 4.63198 12.7777 4.43753 12.6249L2.70837 13.3749C2.52781 13.4444 2.35087 13.4513 2.17753 13.3958C2.00364 13.3402 1.86114 13.2291 1.75003 13.0624L0.500032 10.8749C0.40281 10.7083 0.375033 10.531 0.416699 10.3433C0.458366 10.156 0.548643 10.0069 0.687532 9.89575L2.20837 8.74992C2.18059 8.62492 2.16337 8.49992 2.1567 8.37492C2.14948 8.24992 2.14587 8.12492 2.14587 7.99992C2.14587 7.88881 2.14948 7.77075 2.1567 7.64575C2.16337 7.52075 2.18059 7.38881 2.20837 7.24992L0.687532 6.10409C0.548643 5.99297 0.458366 5.84381 0.416699 5.65658C0.375033 5.46881 0.40281 5.29159 0.500032 5.12492L1.75003 2.95825C1.84725 2.79158 1.98614 2.68047 2.1667 2.62492C2.34725 2.56936 2.52087 2.57631 2.68753 2.64575L4.43753 3.37492C4.63198 3.22214 4.84392 3.07992 5.07337 2.94825C5.30225 2.81603 5.52781 2.70825 5.75003 2.62492L6.00003 0.749919C6.02781 0.555474 6.11114 0.395752 6.25003 0.270752C6.38892 0.145752 6.54864 0.083252 6.7292 0.083252H9.25003C9.44448 0.083252 9.61114 0.145752 9.75003 0.270752C9.88892 0.395752 9.97225 0.555474 10 0.749919L10.25 2.62492C10.5 2.72214 10.7256 2.82964 10.9267 2.94742C11.1284 3.06575 11.3334 3.20825 11.5417 3.37492L13.3125 2.64575C13.4792 2.57631 13.6495 2.56936 13.8234 2.62492C13.9967 2.68047 14.1389 2.79158 14.25 2.95825L15.5 5.12492C15.5973 5.29159 15.625 5.46881 15.5834 5.65658C15.5417 5.84381 15.4514 5.99297 15.3125 6.10409L13.7709 7.27075C13.7986 7.40964 13.8125 7.53464 13.8125 7.64575V7.99992C13.8125 8.11103 13.8089 8.22547 13.8017 8.34325C13.795 8.46159 13.7778 8.59714 13.75 8.74992L15.2709 9.89575C15.4236 10.0069 15.5209 10.156 15.5625 10.3433C15.6042 10.531 15.5695 10.7083 15.4584 10.8749L14.2084 13.0416C14.1111 13.2083 13.9723 13.3194 13.7917 13.3749C13.6111 13.4305 13.4306 13.4235 13.25 13.3541L11.5417 12.6249C11.3334 12.7916 11.1217 12.9374 10.9067 13.0624C10.6911 13.1874 10.4723 13.2916 10.25 13.3749L10 15.2499C9.97225 15.4444 9.88892 15.6041 9.75003 15.7291C9.61114 15.8541 9.44448 15.9166 9.25003 15.9166ZM8.00003 10.4999C8.69448 10.4999 9.28475 10.2569 9.77087 9.77075C10.257 9.28464 10.5 8.69436 10.5 7.99992C10.5 7.30547 10.257 6.7152 9.77087 6.22908C9.28475 5.74297 8.69448 5.49992 8.00003 5.49992C7.30559 5.49992 6.71531 5.74297 6.2292 6.22908C5.74309 6.7152 5.50003 7.30547 5.50003 7.99992C5.50003 8.69436 5.74309 9.28464 6.2292 9.77075C6.71531 10.2569 7.30559 10.4999 8.00003 10.4999ZM8.00003 9.24992C7.65281 9.24992 7.35781 9.12825 7.11503 8.88492C6.8717 8.64214 6.75003 8.34714 6.75003 7.99992C6.75003 7.6527 6.8717 7.3577 7.11503 7.11492C7.35781 6.87158 7.65281 6.74992 8.00003 6.74992C8.34725 6.74992 8.64225 6.87158 8.88503 7.11492C9.12837 7.3577 9.25003 7.6527 9.25003 7.99992C9.25003 8.34714 9.12837 8.64214 8.88503 8.88492C8.64225 9.12825 8.34725 9.24992 8.00003 9.24992ZM7.1667 14.6666H8.81253L9.1042 12.4374C9.53475 12.3263 9.92364 12.1666 10.2709 11.9583C10.6181 11.7499 10.9584 11.486 11.2917 11.1666L13.3542 12.0416L14.1875 10.6249L12.375 9.27075C12.4445 9.04853 12.4898 8.83325 12.5109 8.62492C12.5314 8.41658 12.5417 8.20825 12.5417 7.99992C12.5417 7.7777 12.5314 7.56603 12.5109 7.36492C12.4898 7.16325 12.4445 6.95825 12.375 6.74992L14.1875 5.37492L13.375 3.95825L11.2709 4.83325C10.9931 4.54158 10.6598 4.28103 10.2709 4.05159C9.88198 3.8227 9.49309 3.65964 9.1042 3.56242L8.83337 1.33325H7.18753L6.89587 3.56242C6.4792 3.65964 6.09031 3.81242 5.7292 4.02075C5.36809 4.22908 5.02087 4.49297 4.68753 4.81242L2.62503 3.95825L1.81253 5.37492L3.6042 6.70825C3.53475 6.91658 3.48614 7.12492 3.45837 7.33325C3.43059 7.54158 3.4167 7.76381 3.4167 7.99992C3.4167 8.22214 3.43059 8.43742 3.45837 8.64575C3.48614 8.85408 3.53475 9.06242 3.6042 9.27075L1.81253 10.6249L2.62503 12.0416L4.68753 11.1666C5.00698 11.486 5.34725 11.7499 5.70837 11.9583C6.06948 12.1666 6.46531 12.3263 6.89587 12.4374L7.1667 14.6666Z" fill="white"/>
</svg>
