<svg width="10" height="11" viewBox="0 0 10 11" fill="none" xmlns="http://www.w3.org/2000/svg">
<path d="M8.06686 10.6C7.65797 10.6 7.31131 10.4578 7.02686 10.1733C6.74242 9.88889 6.60019 9.54222 6.60019 9.13333C6.60019 9.07111 6.60464 9.00213 6.61353 8.9264C6.62242 8.85102 6.64019 8.78666 6.66686 8.73333L2.72019 6.41333C2.57797 6.55555 2.41797 6.66666 2.24019 6.74666C2.06242 6.82666 1.87131 6.86666 1.66686 6.86666C1.25797 6.86666 0.911306 6.72444 0.626862 6.44C0.342418 6.15555 0.200195 5.80889 0.200195 5.4C0.200195 4.99111 0.342418 4.64444 0.626862 4.36C0.911306 4.07555 1.25797 3.93333 1.66686 3.93333C1.87131 3.93333 2.06242 3.97333 2.24019 4.05333C2.41797 4.13333 2.57797 4.24444 2.72019 4.38666L6.66686 2.06666C6.64019 2.01333 6.62242 1.9488 6.61353 1.87306C6.60464 1.79769 6.60019 1.72889 6.60019 1.66666C6.60019 1.25777 6.74242 0.911108 7.02686 0.626664C7.31131 0.342219 7.65797 0.199997 8.06686 0.199997C8.47575 0.199997 8.82242 0.342219 9.10686 0.626664C9.3913 0.911108 9.53353 1.25777 9.53353 1.66666C9.53353 2.07555 9.3913 2.42222 9.10686 2.70666C8.82242 2.99111 8.47575 3.13333 8.06686 3.13333C7.86242 3.13333 7.6713 3.09333 7.49353 3.01333C7.31575 2.93333 7.15575 2.82222 7.01353 2.68L3.06686 5C3.09353 5.05333 3.11131 5.11555 3.12019 5.18666C3.12908 5.25777 3.13353 5.32889 3.13353 5.4C3.13353 5.46222 3.12908 5.53102 3.12019 5.6064C3.11131 5.68213 3.09353 5.74666 3.06686 5.8L7.01353 8.12C7.15575 7.97777 7.31575 7.86666 7.49353 7.78666C7.6713 7.70666 7.86242 7.66666 8.06686 7.66666C8.47575 7.66666 8.82242 7.80889 9.10686 8.09333C9.3913 8.37777 9.53353 8.72444 9.53353 9.13333C9.53353 9.54222 9.3913 9.88889 9.10686 10.1733C8.82242 10.4578 8.47575 10.6 8.06686 10.6ZM8.06686 2.33333C8.25353 2.33333 8.41139 2.2688 8.54046 2.13973C8.66917 2.01102 8.73353 1.85333 8.73353 1.66666C8.73353 1.48 8.66917 1.32213 8.54046 1.19306C8.41139 1.06435 8.25353 0.999997 8.06686 0.999997C7.88019 0.999997 7.72251 1.06435 7.59379 1.19306C7.46473 1.32213 7.40019 1.48 7.40019 1.66666C7.40019 1.85333 7.46473 2.01102 7.59379 2.13973C7.72251 2.2688 7.88019 2.33333 8.06686 2.33333ZM1.66686 6.06666C1.85353 6.06666 2.01139 6.00213 2.14046 5.87306C2.26917 5.74435 2.33353 5.58666 2.33353 5.4C2.33353 5.21333 2.26917 5.05564 2.14046 4.92693C2.01139 4.79786 1.85353 4.73333 1.66686 4.73333C1.4802 4.73333 1.32251 4.79786 1.1938 4.92693C1.06473 5.05564 1.0002 5.21333 1.0002 5.4C1.0002 5.58666 1.06473 5.74435 1.1938 5.87306C1.32251 6.00213 1.4802 6.06666 1.66686 6.06666ZM8.06686 9.8C8.25353 9.8 8.41139 9.73546 8.54046 9.6064C8.66917 9.47768 8.73353 9.32 8.73353 9.13333C8.73353 8.94666 8.66917 8.78897 8.54046 8.66026C8.41139 8.5312 8.25353 8.46666 8.06686 8.46666C7.88019 8.46666 7.72251 8.5312 7.59379 8.66026C7.46473 8.78897 7.40019 8.94666 7.40019 9.13333C7.40019 9.32 7.46473 9.47768 7.59379 9.6064C7.72251 9.73546 7.88019 9.8 8.06686 9.8Z" fill="#0055AA"/>
</svg>
