<svg width="14" height="14" viewBox="0 0 14 14" fill="none" xmlns="http://www.w3.org/2000/svg">
<path d="M4.19397 11.4341L7.0083 9.73657L9.82263 11.4564L9.08554 8.24006L11.5648 6.09581L8.30378 5.80544L7.0083 2.76776L5.71282 5.78311L2.45177 6.07347L4.93106 8.24006L4.19397 11.4341ZM7.0083 11.3224L3.5239 13.3997C3.40477 13.4741 3.2782 13.5075 3.14418 13.4997C3.01017 13.4926 2.89104 13.4518 2.78681 13.3773C2.68258 13.3029 2.60068 13.2025 2.54111 13.0762C2.48155 12.9494 2.47411 12.8115 2.51878 12.6626L3.43455 8.73145L0.374529 6.07347C0.255404 5.96924 0.180951 5.85011 0.151169 5.7161C0.121388 5.58208 0.128834 5.45551 0.173506 5.33639C0.218177 5.21726 0.289057 5.1166 0.386144 5.03441C0.482635 4.95281 0.605334 4.90456 0.75424 4.88967L4.79704 4.53229L6.38289 0.802194C6.44246 0.668178 6.52823 0.567517 6.64021 0.500211C6.75159 0.433501 6.87429 0.400146 7.0083 0.400146C7.14232 0.400146 7.26531 0.433501 7.37729 0.500211C7.48867 0.567517 7.57414 0.668178 7.63371 0.802194L9.21956 4.53229L13.2624 4.88967C13.4113 4.90456 13.5343 4.95281 13.6314 5.03441C13.7278 5.1166 13.7984 5.21726 13.8431 5.33639C13.8878 5.45551 13.8952 5.58208 13.8654 5.7161C13.8357 5.85011 13.7612 5.96924 13.6421 6.07347L10.5821 8.73145L11.4978 12.6626C11.5425 12.8115 11.535 12.9494 11.4755 13.0762C11.4159 13.2025 11.334 13.3029 11.2298 13.3773C11.1256 13.4518 11.0064 13.4926 10.8724 13.4997C10.7384 13.5075 10.6118 13.4741 10.4927 13.3997L7.0083 11.3224Z" fill="white"/>
</svg>
