<svg width="18" height="16" viewBox="0 0 18 16" fill="none" xmlns="http://www.w3.org/2000/svg">
<path d="M5.63257 13.3207L9.00977 11.2837L12.387 13.3475L11.5025 9.48788L14.4776 6.91478L10.5643 6.56634L9.00977 2.92112L7.45519 6.53954L3.54193 6.88798L6.51708 9.48788L5.63257 13.3207ZM9.00977 13.1867L4.82848 15.6794C4.68553 15.7687 4.53365 15.8088 4.37283 15.7995C4.21201 15.7909 4.06906 15.7419 3.94398 15.6526C3.8189 15.5633 3.72062 15.4428 3.64914 15.2913C3.57767 15.1391 3.56873 14.9736 3.62234 14.7949L4.72127 10.0776L1.04924 6.88798C0.906289 6.7629 0.816946 6.61995 0.781208 6.45913C0.745471 6.29831 0.754405 6.14643 0.808011 6.00348C0.861618 5.86053 0.946673 5.73973 1.06318 5.6411C1.17897 5.54318 1.32621 5.48528 1.50489 5.46741L6.35626 5.03856L8.25928 0.562443C8.33075 0.401624 8.43368 0.280831 8.56805 0.200065C8.70171 0.120013 8.84895 0.0799866 9.00977 0.0799866C9.17059 0.0799866 9.31818 0.120013 9.45255 0.200065C9.58621 0.280831 9.68878 0.401624 9.76025 0.562443L11.6633 5.03856L16.5146 5.46741C16.6933 5.48528 16.8409 5.54318 16.9574 5.6411C17.0732 5.73973 17.1579 5.86053 17.2115 6.00348C17.2651 6.14643 17.2741 6.29831 17.2383 6.45913C17.2026 6.61995 17.1132 6.7629 16.9703 6.88798L13.2983 10.0776L14.3972 14.7949C14.4508 14.9736 14.4419 15.1391 14.3704 15.2913C14.2989 15.4428 14.2006 15.5633 14.0756 15.6526C13.9505 15.7419 13.8075 15.7909 13.6467 15.7995C13.4859 15.8088 13.334 15.7687 13.1911 15.6794L9.00977 13.1867Z" fill="#4B5768"/>
</svg>
